<!DOCTYPE svg PUBLIC "-//W3C//DTD SVG 1.1//EN" "http://www.w3.org/Graphics/SVG/1.1/DTD/svg11.dtd">
<!-- Uploaded to: SVG Repo, www.svgrepo.com, Transformed by: SVG Repo Mixer Tools -->
<svg fill="#00b2a2" height="800px" width="800px" version="1.1" id="Capa_1" xmlns="http://www.w3.org/2000/svg" xmlns:xlink="http://www.w3.org/1999/xlink" viewBox="0 0 297.686 297.686" xml:space="preserve">
<g id="SVGRepo_bgCarrier" stroke-width="0"/>
<g id="SVGRepo_tracerCarrier" stroke-linecap="round" stroke-linejoin="round"/>
<g id="SVGRepo_iconCarrier"> <g> <path d="M247.5,205.676c0-4.418-3.582-8-8-8h-17c-4.418,0-8,3.582-8,8v17c0,4.418,3.582,8,8,8h17c4.418,0,8-3.582,8-8V205.676z"/> <path d="M281.5,248.358v-66.683h8.166c0.008,0.001,0.015,0.001,0.02,0c4.419,0,8-3.582,8-8c0-1.432-0.375-2.775-1.034-3.938 l-23.596-49.505c-1.327-2.784-4.137-4.558-7.222-4.558H264.5v-26c0-4.418-3.249-8-7.667-8h-34c-4.418,0-8.333,3.582-8.333,8v26 h-10.411l-14.033-29.442c-1.327-2.784-4.137-4.558-7.222-4.558H84.5v-40c0-4.418-3.249-8-7.667-8h-34c-4.418,0-8.333,3.582-8.333,8 v40h-2.67c-3.085,0-5.895,1.773-7.222,4.558l-23.83,50c-1.182,2.479-1.009,5.391,0.456,7.712c1.466,2.322,4.02,3.73,6.766,3.73h8.5 v100.683c-9,3.621-15.834,12.704-15.834,23.317c0,13.785,11.381,25,25.167,25h247c13.785,0,24.833-11.215,24.833-25 C297.667,261.063,291.5,251.979,281.5,248.358z M272.833,280.676h-247c-4.963,0-9-4.037-9-9c0-4.963,4.037-9,9-9h247 c4.963,0,9,4.037,9,9C281.833,276.639,277.796,280.676,272.833,280.676z M36.88,97.676h140.905l16.205,34H20.675L36.88,97.676z M68.5,49.676v32h-18v-32H68.5z M248.5,97.676v18h-18v-18H248.5z M260.785,131.676l16.205,34H196.5v-18h10.166 c0.007,0,0.015,0,0.02,0c4.419,0,8-3.582,8-8c0-1.432-0.375-2.775-1.034-3.938l-1.937-4.063H260.785z M82.5,246.676h-17v-49h17 V246.676z M115.5,246.676h-17v-49h17V246.676z M148.5,246.676h-17v-49h17V246.676z M265.5,246.676h-69v-65h69V246.676z M180.5,147.676v99h-16v-57c0-4.418-3.249-8-7.667-8h-99c-4.418,0-8.333,3.582-8.333,8v57h-17v-99H180.5z"/> <path d="M197.833,49.01c13.233,0,24-10.767,24-24s-10.767-24-24-24s-24,10.767-24,24S184.6,49.01,197.833,49.01z M197.833,17.01 c4.411,0,8,3.589,8,8s-3.589,8-8,8s-8-3.589-8-8S193.422,17.01,197.833,17.01z"/> </g> </g>
</svg>