<!DOCTYPE svg PUBLIC "-//W3C//DTD SVG 1.1//EN" "http://www.w3.org/Graphics/SVG/1.1/DTD/svg11.dtd">
<!-- Uploaded to: SVG Repo, www.svgrepo.com, Transformed by: SVG Repo Mixer Tools -->
<svg fill="#00b2a2" height="800px" width="800px" version="1.1" id="Capa_1" xmlns="http://www.w3.org/2000/svg" xmlns:xlink="http://www.w3.org/1999/xlink" viewBox="0 0 451.971 451.971" xml:space="preserve">
<g id="SVGRepo_bgCarrier" stroke-width="0"/>
<g id="SVGRepo_tracerCarrier" stroke-linecap="round" stroke-linejoin="round"/>
<g id="SVGRepo_iconCarrier"> <path id="XMLID_257_" d="M172.115,288.246h-5.982l4.23-4.23c10.708-10.714,10.708-28.145,0-38.857 c-0.034-0.033-0.068-0.066-0.102-0.1c-10.721-10.615-28.078-10.581-38.76,0.099l-4.229,4.229v-5.979 c0-15.151-12.327-27.478-27.478-27.478c-15.152,0-27.479,12.326-27.479,27.478v5.978l-4.228-4.229 c-10.714-10.71-28.146-10.708-38.859,0.002c-10.711,10.713-10.712,28.146,0,38.86l4.227,4.228h-5.979 C12.326,288.246,0,300.573,0,315.724s12.326,27.478,27.478,27.478h5.979l-4.229,4.229c-10.712,10.712-10.712,28.144-0.001,38.858 c0.04,0.04,0.081,0.08,0.122,0.12C40.07,397,57.413,396.963,68.089,386.291l4.227-4.227v5.979c0,15.15,12.328,27.477,27.48,27.477 c15.15,0,27.476-12.326,27.476-27.477v-5.98l4.229,4.229c10.715,10.711,28.148,10.71,38.86-0.003 c10.712-10.713,10.712-28.145,0-38.858l-4.23-4.229h5.983c15.15,0,27.476-12.327,27.476-27.479 C199.591,300.572,187.266,288.246,172.115,288.246z M172.115,325.202h-16.089c-3.89,0-7.34,2.499-8.552,6.196 c-0.78,2.378-1.75,4.718-2.883,6.956c-1.758,3.472-1.085,7.679,1.666,10.43l11.377,11.376c3.695,3.695,3.695,9.708,0,13.403 c-3.696,3.695-9.71,3.695-13.405,0l-11.375-11.376c-2.751-2.75-6.955-3.423-10.426-1.667c-2.242,1.134-4.583,2.104-6.96,2.884 c-3.696,1.213-6.194,4.662-6.194,8.552v16.088c0,5.226-4.252,9.477-9.478,9.477c-5.227,0-9.479-4.251-9.479-9.477v-16.089 c0-3.889-2.497-7.337-6.191-8.551c-2.381-0.782-4.723-1.752-6.961-2.885c-1.29-0.652-2.68-0.969-4.06-0.969 c-2.334,0-4.638,0.907-6.366,2.636l-11.375,11.375c-3.696,3.695-9.71,3.697-13.405,0.001c-0.023-0.022-0.045-0.045-0.068-0.067 c-3.628-3.702-3.606-9.664,0.066-13.336l11.378-11.379c2.751-2.752,3.423-6.961,1.664-10.432c-1.125-2.222-2.096-4.563-2.883-6.957 c-1.214-3.693-4.662-6.189-8.55-6.189H27.478c-5.226,0-9.478-4.253-9.478-9.479c0-5.226,4.251-9.477,9.478-9.477h16.088 c3.886,0,7.333-2.494,8.549-6.186c0.787-2.391,1.758-4.733,2.887-6.963c1.756-3.471,1.084-7.678-1.666-10.428l-11.376-11.378 c-3.696-3.696-3.696-9.711-0.001-13.406c3.696-3.692,9.708-3.694,13.403,0l11.378,11.379c2.751,2.751,6.958,3.424,10.43,1.665 c2.226-1.127,4.567-2.097,6.958-2.883c3.693-1.214,6.189-4.662,6.189-8.55v-16.09c0-5.226,4.253-9.478,9.48-9.478 c5.225,0,9.476,4.252,9.476,9.478v16.088c0,3.888,2.496,7.336,6.189,8.55c2.383,0.783,4.725,1.755,6.96,2.886 c3.47,1.755,7.677,1.086,10.428-1.666l11.379-11.379c3.697-3.694,9.709-3.696,13.403-0.002c0.019,0.02,0.038,0.038,0.057,0.057 c3.639,3.7,3.621,9.673-0.055,13.349l-11.377,11.378c-2.751,2.752-3.422,6.959-1.665,10.43c1.129,2.23,2.1,4.572,2.885,6.96 c1.214,3.693,4.662,6.189,8.55,6.189h16.089c5.225,0,9.476,4.252,9.476,9.479C181.591,320.95,177.34,325.202,172.115,325.202z M376.944,239.559c-4.971,0-9-4.029-9-9V127.182c0-4.123-3.354-7.477-7.476-7.477H343.99c-4.971,0-9-4.029-9-9s4.029-9,9-9h16.478 c14.047,0,25.476,11.429,25.476,25.477v103.377C385.944,235.53,381.915,239.559,376.944,239.559z M99.797,285.976 c-16.404,0-29.75,13.346-29.75,29.75c0,16.403,13.346,29.749,29.75,29.749c16.404,0,29.749-13.346,29.749-29.749 C129.546,299.322,116.201,285.976,99.797,285.976z M99.797,327.475c-6.479,0-11.75-5.271-11.75-11.749s5.271-11.75,11.75-11.75 c6.479,0,11.749,5.271,11.749,11.75S106.275,327.475,99.797,327.475z M297.979,7.686h-57.14c-4.971,0-9,4.029-9,9v378.693 c0,4.971,4.029,9,9,9h57.14c4.971,0,9-4.029,9-9V16.686C306.979,11.715,302.95,7.686,297.979,7.686z M288.979,386.379h-39.14 v-45.117h12.125c4.971,0,9-4.029,9-9s-4.029-9-9-9h-12.125v-45.115h12.125c4.971,0,9-4.029,9-9s-4.029-9-9-9h-12.125v-45.114h12.125 c4.971,0,9-4.029,9-9s-4.029-9-9-9h-12.125v-45.115h12.125c4.971,0,9-4.029,9-9s-4.029-9-9-9h-12.125V88.802h12.125 c4.971,0,9-4.029,9-9s-4.029-9-9-9h-12.125V25.686h39.14V386.379z M451.971,44.218v323.627c0,4.971-4.029,9-9,9h-52.144 c-4.971,0-9-4.029-9-9s4.029-9,9-9h43.144V53.218h-94.12c-4.971,0-9-4.029-9-9s4.029-9,9-9h103.12 C447.941,35.218,451.971,39.248,451.971,44.218z M352.99,433.69v1.595c0,4.971-4.029,9-9,9s-9-4.029-9-9v-1.595c0-4.971,4.029-9,9-9 S352.99,428.719,352.99,433.69z M352.99,143.575v260.952c0,4.971-4.029,9-9,9s-9-4.029-9-9V143.575c0-4.971,4.029-9,9-9 S352.99,138.604,352.99,143.575z M201.84,35.218c0,0-79.909,0.003-80.092,0.013c-2.004,0.104-3.834,0.863-5.281,2.067 c-0.001,0.001-0.003,0.003-0.005,0.004c-0.004,0.004-0.009,0.008-0.013,0.011c-0.004,0.004-0.008,0.007-0.012,0.01 c-0.002,0.002-0.004,0.004-0.006,0.005c-0.005,0.005-0.011,0.01-0.017,0.015l0,0.001c-0.191,0.161-81.112,81.067-81.112,81.067 c-1.553,1.549-2.543,3.661-2.638,6.005c-0.006,0.145-0.007,75.528-0.007,75.528c0,4.971,4.029,9,9,9s9-4.029,9-9v-66.16h71.565 c4.971,0,9-4.029,9-9V53.218h70.618c4.971,0,9-4.029,9-9S206.811,35.218,201.84,35.218z M113.223,115.784H63.386l49.837-49.838 V115.784z"/> </g>
</svg>